<svg xmlns="http://www.w3.org/2000/svg" xmlns:xlink="http://www.w3.org/1999/xlink" viewBox="0 0 125 125"><defs><style>.cls-1{fill:none;}.cls-2{clip-path:url(#clip-path);}.cls-3{fill:#00c2e0;}.cls-4{fill:#f3eb9d;}.cls-5{fill:#ccc;}.cls-6{fill:#fff;}.cls-7,.cls-8{fill:#9f9f9f;}.cls-8{opacity:0.36;}.cls-9{fill:#f2a442;}.cls-10{fill:#ffab4a;}.cls-11{fill:#c3a1e0;}</style><clipPath id="clip-path"><circle class="cls-1" cx="62.5" cy="62.5" r="62.5"/></clipPath></defs><title>A</title><g id="new"><g class="cls-2"><circle class="cls-3" cx="62.5" cy="62.5" r="62.5"/><rect class="cls-4" x="18.28" y="28.85" width="90.69" height="67.4" rx="6" ry="6"/><rect class="cls-5" x="23.34" y="70.02" width="80.96" height="21.09" rx="3.5" ry="3.5"/><rect class="cls-6" x="23.34" y="69.02" width="80.96" height="21.09" rx="3.5" ry="3.5"/><rect class="cls-7" x="23.19" y="35.38" width="49.82" height="4.02" rx="2.01" ry="2.01"/><rect class="cls-5" x="23.34" y="44.92" width="80.96" height="21.09" rx="3.5" ry="3.5"/><rect class="cls-8" x="46.1" y="49.19" width="80.96" height="21.09" rx="3.5" ry="3.5" transform="matrix(0.99, 0.14, -0.14, 0.99, 9.33, -11.65)"/><rect class="cls-9" x="77.06" y="33.87" width="11.68" height="6.03" rx="2.5" ry="2.5"/><rect class="cls-5" x="52.67" y="45.91" width="80.96" height="21.09" rx="3.5" ry="3.5" transform="translate(10.91 -14.96) rotate(9.75)"/><rect class="cls-6" x="52.84" y="44.92" width="80.96" height="21.09" rx="3.5" ry="3.5" transform="matrix(0.99, 0.17, -0.17, 0.99, 10.74, -15.01)"/><circle class="cls-7" cx="95.54" cy="37.41" r="1.26"/><circle class="cls-7" cx="100.2" cy="37.41" r="1.26"/><circle class="cls-7" cx="104.85" cy="37.41" r="1.26"/><path class="cls-6" d="M75.66,36.16l7.11-9.77a2.52,2.52,0,0,1,4.27.34L92.5,37.42a2.5,2.5,0,0,1-2.42,3.64l-12.57-.92A2.51,2.51,0,0,1,75.66,36.16Z"/><path class="cls-10" d="M77,37l6.78-9.32a1.21,1.21,0,0,1,2,.16L91.05,38a1.2,1.2,0,0,1-1.16,1.75l-12-.88A1.2,1.2,0,0,1,77,37Z"/><rect class="cls-6" x="83.64" y="30.21" width="1.51" height="4.52" transform="translate(2.6 -6.08) rotate(4.19)"/><circle class="cls-6" cx="84.11" cy="36.36" r="1"/><rect class="cls-11" x="27.05" y="74.71" width="35.6" height="3.01" rx="1.51" ry="1.51"/><rect class="cls-11" x="27.05" y="80.73" width="17.25" height="3.01" rx="1.51" ry="1.51"/><rect class="cls-11" x="57.42" y="47.47" width="35.6" height="3.01" rx="1.51" ry="1.51" transform="translate(9.57 -12.24) rotate(9.93)"/><rect class="cls-11" x="56.52" y="51.83" width="17.25" height="3.01" rx="1.51" ry="1.51" transform="translate(10.17 -10.43) rotate(9.93)"/></g></g></svg>